<svg id="Layer_1" data-name="Layer 1" xmlns="http://www.w3.org/2000/svg" viewBox="0 0 612 792"><defs><style>.cls-1{font-size:48px;fill:#171512;font-family:MyriadPro-BoldCond, Myriad Pro;}.cls-1,.cls-17{letter-spacing:-0.01em;}.cls-2,.cls-3{font-weight:700;}.cls-3{letter-spacing:0.01em;}.cls-19,.cls-22,.cls-39,.cls-4,.cls-47,.cls-5,.cls-55,.cls-6,.cls-7,.cls-9{fill:#0e6486;}.cls-11,.cls-20,.cls-23,.cls-4,.cls-5,.cls-6,.cls-8{font-family:MyriadPro-LightSemiCn, Myriad Pro;}.cls-4{letter-spacing:0em;}.cls-5{letter-spacing:0em;}.cls-39,.cls-7,.cls-9{font-size:12.61px;}.cls-13,.cls-17,.cls-18,.cls-21,.cls-38,.cls-39,.cls-55,.cls-7,.cls-9{font-family:MyriadPro-Regular, Myriad Pro;}.cls-7{letter-spacing:-0.01em;}.cls-17,.cls-20,.cls-21,.cls-51,.cls-8{font-size:12px;}.cls-11,.cls-20,.cls-23,.cls-46,.cls-51,.cls-8{fill:#231f20;}.cls-8{letter-spacing:0em;}.cls-9{letter-spacing:-0.01em;}.cls-10{letter-spacing:0em;}.cls-11,.cls-18{font-size:13px;}.cls-11{letter-spacing:-0.01em;}.cls-12,.cls-13,.cls-17,.cls-18,.cls-21,.cls-38{fill:#151310;}.cls-13,.cls-38{font-size:14.41px;}.cls-13{letter-spacing:0em;}.cls-14{letter-spacing:0em;}.cls-15{letter-spacing:-0.08em;}.cls-16{letter-spacing:-0.01em;}.cls-19{font-size:11px;}.cls-24{letter-spacing:0.04em;}.cls-25{letter-spacing:0.04em;}.cls-26{letter-spacing:0.04em;}.cls-27{letter-spacing:0.02em;}.cls-28{letter-spacing:0em;}.cls-29{letter-spacing:0.02em;}.cls-30{letter-spacing:0.02em;}.cls-31,.cls-45{fill:#fff;}.cls-32{letter-spacing:0.04em;}.cls-33{letter-spacing:0.04em;}.cls-34{letter-spacing:0.04em;}.cls-35{letter-spacing:0.07em;}.cls-36{letter-spacing:0.07em;}.cls-37{letter-spacing:0.07em;}.cls-38{letter-spacing:0em;}.cls-39{letter-spacing:-0.02em;}.cls-40{letter-spacing:-0.02em;}.cls-41{letter-spacing:0.06em;}.cls-42{letter-spacing:0.06em;}.cls-43{letter-spacing:0.06em;}.cls-44{fill:none;stroke:#0e6486;}.cls-44,.cls-45,.cls-46{stroke-miterlimit:10;}.cls-45{stroke:#fff;}.cls-46{stroke:#231f20;}.cls-47{font-size:9px;letter-spacing:0em;}.cls-47,.cls-51{font-family:MyriadPro-Light, Myriad Pro;}.cls-48{letter-spacing:-0.03em;}.cls-49{letter-spacing:0em;}.cls-50{letter-spacing:-0.01em;}.cls-52{letter-spacing:0.01em;}.cls-53{letter-spacing:0em;}.cls-54{letter-spacing:-0.01em;}.cls-55{font-size:16px;}.cls-56{letter-spacing:0.07em;}.cls-57{letter-spacing:0.07em;}.cls-58{letter-spacing:0.07em;}.cls-59{letter-spacing:-0.03em;}.cls-60{letter-spacing:-0.03em;}.cls-61{letter-spacing:0.08em;}.cls-62{letter-spacing:0.08em;}.cls-63{letter-spacing:0.08em;}</style></defs><title>BackendResume</title><text class="cls-1" transform="translate(69.82 78.14)"><tspan class="cls-2">HALL</tspan><tspan class="cls-3" x="82.22" y="0">E</tspan><tspan class="cls-2" x="101.42" y="0">Y </tspan><tspan class="cls-4" x="127.87" y="0">F</tspan><tspan class="cls-5" x="147.69" y="0">R</tspan><tspan class="cls-6" x="169.96" y="0">OEB</tspan></text><text class="cls-7" transform="translate(374.71 54.03)">Email:</text><text class="cls-8" transform="translate(432.48 52.26)">hfroeb@gmail.com</text><text class="cls-9" transform="translate(369.44 71.26)">P<tspan class="cls-10" x="6.58" y="0">hone:</tspan></text><text class="cls-11" transform="translate(433.21 72.15)">615 584 2664</text><g id="Shape_1" data-name="Shape 1"><rect class="cls-12" x="57.97" y="112.46" width="486" height="3.84"/></g><text class="cls-13" transform="translate(74.86 139.31)">EDU<tspan class="cls-14" x="25.8" y="0">C</tspan><tspan class="cls-15" x="34.15" y="0">A</tspan><tspan class="cls-16" x="41.78" y="0">TION</tspan></text><g id="Shape_10" data-name="Shape 10"><rect class="cls-12" x="71.11" y="145.33" width="286.3" height="0.77"/></g><text class="cls-17" transform="translate(65.38 229.34)">2014 -</text><text class="cls-18" transform="translate(116.93 228.32)">TULANE UNIVERSITY<tspan class="cls-19"><tspan x="0" y="14.41">BACHELOR OF ARTS</tspan></tspan><tspan class="cls-20"><tspan x="0" y="28.83">Communication Studies</tspan></tspan></text><text class="cls-13" transform="translate(74.86 291.38)">EXPERIENCE</text><g id="Shape_10-2" data-name="Shape 10"><rect class="cls-12" x="71.11" y="295.4" width="286.3" height="0.77"/></g><text class="cls-17" transform="translate(69.1 426.52)">2013-</text><text class="cls-21" transform="translate(116.93 423.69)">MANAGER, DIGITAL AND SOCIAL MEDIA<tspan class="cls-22"><tspan x="0" y="14.41">READnola</tspan></tspan><tspan class="cls-23"><tspan x="0" y="28.83">Developed</tspan><tspan class="cls-24" x="47.62" y="28.83"> </tspan><tspan x="50.48" y="28.83">website</tspan><tspan class="cls-25" x="84.77" y="28.83"> </tspan><tspan x="87.63" y="28.83">layouts,</tspan><tspan class="cls-24" x="120.91" y="28.83"> </tspan><tspan x="123.78" y="28.83">illustrated</tspan><tspan class="cls-26" x="166.93" y="28.83"> </tspan><tspan x="169.79" y="28.83">graphics,</tspan><tspan class="cls-25" x="209.05" y="28.83"> </tspan><tspan x="211.91" y="28.83">produced</tspan><tspan class="cls-26" x="254.48" y="28.83"> </tspan><tspan x="257.35" y="28.83">interactive</tspan><tspan class="cls-25" x="303.12" y="28.83"> </tspan><tspan x="305.99" y="28.83">videos,</tspan><tspan class="cls-25" x="336.32" y="28.83"> </tspan><tspan x="339.18" y="28.83">managed</tspan><tspan class="cls-26" x="381.03" y="28.83"> </tspan><tspan x="383.9" y="28.83">social </tspan><tspan x="0" y="43.24">media</tspan><tspan class="cls-27" x="27.46" y="43.24"> </tspan><tspan x="30.12" y="43.24">accounts,</tspan><tspan class="cls-27" x="71.59" y="43.24"> </tspan><tspan x="74.26" y="43.24">and</tspan><tspan class="cls-27" x="90.99" y="43.24"> </tspan><tspan x="93.65" y="43.24">consulted</tspan><tspan class="cls-27" x="136.81" y="43.24"> </tspan><tspan x="139.47" y="43.24">in</tspan><tspan class="cls-27" x="147.66" y="43.24"> </tspan><tspan class="cls-28" x="150.32" y="43.24">marketing</tspan><tspan class="cls-29" x="194.96" y="43.24"> </tspan><tspan x="197.63" y="43.24">strategies</tspan><tspan class="cls-30" x="239.58" y="43.24"> </tspan><tspan x="242.25" y="43.24">which</tspan><tspan class="cls-29" x="269.05" y="43.24"> </tspan><tspan x="271.72" y="43.24">resulted</tspan><tspan class="cls-30" x="307.02" y="43.24"> </tspan><tspan x="309.69" y="43.24">in</tspan><tspan class="cls-29" x="317.88" y="43.24"> </tspan><tspan x="320.54" y="43.24">greater</tspan><tspan class="cls-30" x="351.85" y="43.24"> </tspan><tspan x="354.52" y="43.24">online</tspan><tspan class="cls-29" x="381.92" y="43.24"> </tspan><tspan x="384.59" y="43.24">inter</tspan><tspan x="404.68" y="43.24">-</tspan><tspan x="0" y="57.65">action with customers. </tspan></tspan></text><text class="cls-17" transform="translate(68.22 579.51)">2014</text><g id="Shape_12" data-name="Shape 12"><rect class="cls-31" x="132.9" y="573.56" width="7.9" height="11.18"/></g><text class="cls-21" transform="translate(118.59 578.58)">PRODUCTION ASSISTANT<tspan class="cls-22"><tspan x="0" y="14.41">FlITTERMOUSE PRODUCTIONS</tspan></tspan><tspan class="cls-23"><tspan x="0" y="28.83">Scheduled</tspan><tspan class="cls-32" x="46.21" y="28.83"> </tspan><tspan x="49.06" y="28.83">daily</tspan><tspan class="cls-32" x="69.51" y="28.83"> </tspan><tspan x="72.36" y="28.83">reports,</tspan><tspan class="cls-33" x="105.4" y="28.83"> </tspan><tspan x="108.25" y="28.83">provided</tspan><tspan class="cls-32" x="147.53" y="28.83"> </tspan><tspan x="150.38" y="28.83">service</tspan><tspan class="cls-33" x="180.31" y="28.83"> </tspan><tspan x="183.16" y="28.83">for</tspan><tspan class="cls-34" x="195.05" y="28.83"> </tspan><tspan x="197.9" y="28.83">various</tspan><tspan class="cls-33" x="229.03" y="28.83"> </tspan><tspan x="231.88" y="28.83">aspects</tspan><tspan class="cls-34" x="264.45" y="28.83"> </tspan><tspan x="267.3" y="28.83">of</tspan><tspan class="cls-33" x="275.93" y="28.83"> </tspan><tspan x="278.78" y="28.83">the</tspan><tspan class="cls-34" x="293.27" y="28.83"> </tspan><tspan x="296.12" y="28.83">production</tspan><tspan class="cls-33" x="344.84" y="28.83"> </tspan><tspan x="347.69" y="28.83">development </tspan><tspan x="0" y="43.24">such as lighting, set design, and production management. </tspan></tspan></text><text class="cls-17" transform="translate(68.69 647.26)">2012</text><text class="cls-21" transform="translate(116.93 646.51)">INTERNSHIP<tspan class="cls-22"><tspan x="0" y="14.41">THE O’REILLY FACTOR, FOX NEWS</tspan></tspan><tspan class="cls-23"><tspan x="0" y="28.83">Wrote</tspan><tspan class="cls-35" x="26.83" y="28.83"> </tspan><tspan x="30.12" y="28.83">competition</tspan><tspan class="cls-35" x="83.87" y="28.83"> </tspan><tspan x="87.16" y="28.83">reports,</tspan><tspan class="cls-35" x="120.19" y="28.83"> </tspan><tspan x="123.48" y="28.83">ran</tspan><tspan class="cls-36" x="137.58" y="28.83"> </tspan><tspan x="140.87" y="28.83">the</tspan><tspan class="cls-35" x="155.36" y="28.83"> </tspan><tspan class="cls-28" x="158.65" y="28.83">green</tspan><tspan class="cls-37" x="184.16" y="28.83"> </tspan><tspan x="187.45" y="28.83">room,</tspan><tspan class="cls-35" x="213.24" y="28.83"> </tspan><tspan x="216.53" y="28.83">worked</tspan><tspan class="cls-35" x="249.36" y="28.83"> </tspan><tspan x="252.65" y="28.83">with</tspan><tspan class="cls-35" x="272.21" y="28.83"> </tspan><tspan x="275.5" y="28.83">guests</tspan><tspan class="cls-37" x="303.99" y="28.83"> </tspan><tspan x="307.28" y="28.83">on</tspan><tspan class="cls-35" x="318.86" y="28.83"> </tspan><tspan x="322.15" y="28.83">the</tspan><tspan class="cls-35" x="336.64" y="28.83"> </tspan><tspan x="339.93" y="28.83">show,</tspan><tspan class="cls-37" x="365.67" y="28.83"> </tspan><tspan x="368.96" y="28.83">provided </tspan><tspan x="0" y="43.24">research summaries, edited montage sequences, and assisted with field research. </tspan></tspan></text><text class="cls-38" transform="translate(374.56 139.32)">SKILLS</text><g id="Shape_10-3" data-name="Shape 10"><rect class="cls-12" x="371.58" y="145.34" width="159.92" height="0.77"/></g><text class="cls-39" transform="translate(362.8 91.23)">A<tspan class="cls-10" x="7.5" y="0">dd</tspan><tspan class="cls-40" x="21.6" y="0">r</tspan><tspan class="cls-10" x="25.53" y="0">ess:</tspan></text><text class="cls-8" transform="translate(432.96 91.65)">4114 Skyline Dr. <tspan x="0" y="10.37">Nashville, TN 37215</tspan></text><text class="cls-21" transform="translate(116.93 508.99)">DIGITAL ARCHIVE CONTRIBUTOR<tspan class="cls-22"><tspan x="0" y="14.41">MEDIA NOLA</tspan></tspan><tspan class="cls-23"><tspan x="0" y="28.83">Filmed,</tspan><tspan class="cls-41" x="31.94" y="28.83"> </tspan><tspan x="35.11" y="28.83">edited,</tspan><tspan class="cls-42" x="65.21" y="28.83"> </tspan><tspan x="68.38" y="28.83">and</tspan><tspan class="cls-41" x="85.11" y="28.83"> </tspan><tspan x="88.28" y="28.83">produced</tspan><tspan class="cls-42" x="130.84" y="28.83"> </tspan><tspan x="134.01" y="28.83">a</tspan><tspan class="cls-41" x="139" y="28.83"> </tspan><tspan x="142.17" y="28.83">digital</tspan><tspan class="cls-43" x="169.4" y="28.83"> </tspan><tspan x="172.57" y="28.83">story</tspan><tspan class="cls-42" x="193.88" y="28.83"> </tspan><tspan x="197.05" y="28.83">of</tspan><tspan class="cls-43" x="205.68" y="28.83"> </tspan><tspan x="208.85" y="28.83">Tulane</tspan><tspan class="cls-42" x="238.19" y="28.83"> </tspan><tspan x="241.36" y="28.83">Alumnae.</tspan><tspan class="cls-42" x="283.09" y="28.83"> </tspan><tspan x="286.26" y="28.83">Organized</tspan><tspan class="cls-43" x="331.33" y="28.83"> </tspan><tspan x="334.5" y="28.83">an</tspan><tspan class="cls-42" x="345.34" y="28.83"> </tspan><tspan x="348.51" y="28.83">alumnae</tspan><tspan class="cls-43" x="386.73" y="28.83"> </tspan><tspan x="389.9" y="28.83">event </tspan><tspan x="0" y="43.24">that exibited these stories for a historical archive. </tspan></tspan></text><text class="cls-17" transform="translate(68.22 511.1)">2015</text><text class="cls-17" transform="translate(68.72 441.46)">2016</text><text class="cls-17" transform="translate(64.72 245.03)">2016 </text><line class="cls-44" x1="107.53" y1="159.12" x2="107.53" y2="271.93"/><line class="cls-44" x1="106.53" y1="300.98" x2="106.53" y2="704.74"/><rect class="cls-45" x="101.82" y="220.17" width="11.31" height="11.31"/><line class="cls-46" x1="103.7" y1="224.82" x2="111.24" y2="224.82"/><rect class="cls-45" x="100.87" y="416.9" width="11.31" height="11.31"/><line class="cls-46" x1="102.76" y1="422.55" x2="110.3" y2="422.55"/><rect class="cls-45" x="100.8" y="500.59" width="11.31" height="11.31"/><line class="cls-46" x1="102.69" y1="506.25" x2="110.23" y2="506.25"/><rect class="cls-45" x="100.65" y="570.05" width="11.31" height="11.31"/><line class="cls-46" x1="103.54" y1="575.71" x2="111.08" y2="575.71"/><rect class="cls-45" x="100.87" y="637.35" width="11.31" height="11.31"/><line class="cls-46" x1="102.76" y1="643.01" x2="110.3" y2="643.01"/><text class="cls-47" transform="translate(364.27 102.81)">(<tspan class="cls-48" x="2.34" y="0">P</tspan><tspan x="6.58" y="0">e</tspan><tspan class="cls-49" x="10.9" y="0">r</tspan><tspan class="cls-50" x="13.57" y="0">manent)</tspan></text><text class="cls-51" transform="translate(71.29 101.93)">Back End <tspan class="cls-52" x="45.74" y="0">D</tspan><tspan class="cls-53" x="53.58" y="0">e</tspan><tspan class="cls-54" x="59.45" y="0">v</tspan><tspan x="64.79" y="0">eloper</tspan></text><rect class="cls-45" x="101.65" y="165.87" width="11.31" height="11.31"/><line class="cls-46" x1="103.54" y1="171.53" x2="111.08" y2="171.53"/><text class="cls-17" transform="translate(65.27 182.54)"><tspan xml:space="preserve"> 2016  </tspan></text><text class="cls-17" transform="translate(77.43 168.87)"><tspan xml:space="preserve">fall  </tspan></text><text class="cls-18" transform="translate(116.93 167.73)">THE IRON YARD<tspan class="cls-19"><tspan x="0" y="14.41">BACK END ENGINEERING</tspan></tspan><tspan class="cls-20"><tspan x="0" y="28.83">Intensive coding program</tspan></tspan></text><text class="cls-55" transform="translate(372.84 165.68)">Java<tspan x="0" y="20">Scala</tspan><tspan x="0" y="40">Mustache</tspan><tspan x="0" y="60">Spring</tspan><tspan x="0" y="80">Play</tspan><tspan x="0" y="100">HTML</tspan></text><text class="cls-55" transform="translate(459.77 165.75)">CSS<tspan x="0" y="20">Hibernate</tspan><tspan x="0" y="40">Restful APIs</tspan><tspan x="0" y="60">SQL</tspan><tspan x="0" y="80">Unix</tspan><tspan x="0" y="100">GitHub</tspan></text><text class="cls-21" transform="translate(116.41 322.19)">BACK END ENGINEERING<tspan class="cls-22"><tspan x="0" y="14.41">THE IRON YARD</tspan></tspan><tspan class="cls-23"><tspan x="0" y="28.83">Completed</tspan><tspan class="cls-56" x="48.94" y="28.83"> </tspan><tspan x="52.14" y="28.83">a</tspan><tspan class="cls-57" x="57.13" y="28.83"> </tspan><tspan x="60.33" y="28.83">3</tspan><tspan class="cls-56" x="65.71" y="28.83"> </tspan><tspan x="68.91" y="28.83">month</tspan><tspan class="cls-56" x="98.7" y="28.83"> </tspan><tspan x="101.9" y="28.83">immersive</tspan><tspan class="cls-57" x="147.33" y="28.83"> </tspan><tspan x="150.53" y="28.83">web</tspan><tspan class="cls-57" x="169.74" y="28.83"> </tspan><tspan x="172.94" y="28.83">development</tspan><tspan class="cls-58" x="231.82" y="28.83"> </tspan><tspan x="235.02" y="28.83">course</tspan><tspan class="cls-57" x="263.93" y="28.83"> </tspan><tspan x="267.13" y="28.83">with</tspan><tspan class="cls-58" x="286.69" y="28.83"> </tspan><tspan x="289.89" y="28.83">a</tspan><tspan class="cls-57" x="294.88" y="28.83"> </tspan><tspan x="298.08" y="28.83">focus</tspan><tspan class="cls-58" x="321.36" y="28.83"> </tspan><tspan x="324.56" y="28.83">on</tspan><tspan class="cls-57" x="336.14" y="28.83"> </tspan><tspan x="339.34" y="28.83">Back</tspan><tspan class="cls-58" x="359.4" y="28.83"> </tspan><tspan x="362.6" y="28.83">End</tspan><tspan class="cls-57" x="379.43" y="28.83"> </tspan><tspan x="382.63" y="28.83">Engineeringu </tspan><tspan x="0" y="43.24">using</tspan><tspan class="cls-59" x="23.94" y="43.24"> </tspan><tspan x="25.97" y="43.24">Java.</tspan><tspan class="cls-59" x="46.74" y="43.24"> </tspan><tspan x="48.77" y="43.24">Built</tspan><tspan class="cls-48" x="68.23" y="43.24"> </tspan><tspan x="70.26" y="43.24">a</tspan><tspan class="cls-59" x="75.25" y="43.24"> </tspan><tspan x="77.28" y="43.24">variety</tspan><tspan class="cls-59" x="106.28" y="43.24"> </tspan><tspan x="108.31" y="43.24">of</tspan><tspan class="cls-59" x="116.94" y="43.24"> </tspan><tspan x="118.97" y="43.24">web</tspan><tspan class="cls-48" x="138.18" y="43.24"> </tspan><tspan x="140.21" y="43.24">application</tspan><tspan class="cls-48" x="188.94" y="43.24"> </tspan><tspan x="190.97" y="43.24">projects</tspan><tspan class="cls-60" x="225.85" y="43.24"> </tspan><tspan x="227.88" y="43.24">both</tspan><tspan class="cls-48" x="248.81" y="43.24"> </tspan><tspan x="250.84" y="43.24">individually</tspan><tspan class="cls-48" x="300.79" y="43.24"> </tspan><tspan x="302.82" y="43.24">and</tspan><tspan class="cls-60" x="319.55" y="43.24"> </tspan><tspan x="321.58" y="43.24">collaboratively,</tspan><tspan class="cls-48" x="387.03" y="43.24"> </tspan><tspan x="389.06" y="43.24">from</tspan><tspan class="cls-60" x="409.93" y="43.24"> </tspan><tspan x="411.96" y="43.24">design </tspan><tspan x="0" y="57.65">to</tspan><tspan class="cls-61" x="9.12" y="57.65"> </tspan><tspan x="12.52" y="57.65">deployment.</tspan><tspan class="cls-61" x="68.12" y="57.65"> </tspan><tspan x="71.52" y="57.65">Developed</tspan><tspan class="cls-61" x="119.13" y="57.65"> </tspan><tspan x="122.53" y="57.65">a</tspan><tspan class="cls-61" x="127.52" y="57.65"> </tspan><tspan x="130.91" y="57.65">capstone</tspan><tspan class="cls-62" x="170.97" y="57.65"> </tspan><tspan x="174.36" y="57.65">projest</tspan><tspan class="cls-63" x="204.46" y="57.65"> </tspan><tspan x="207.86" y="57.65">using</tspan><tspan class="cls-63" x="231.79" y="57.65"> </tspan><tspan x="235.19" y="57.65">Java</tspan><tspan class="cls-62" x="253.89" y="57.65"> </tspan><tspan x="257.28" y="57.65">and</tspan><tspan class="cls-63" x="274.01" y="57.65"> </tspan><tspan x="277.41" y="57.65">SpringBoot</tspan><tspan class="cls-63" x="326.27" y="57.65"> </tspan><tspan x="329.67" y="57.65">to</tspan><tspan class="cls-62" x="338.79" y="57.65"> </tspan><tspan x="342.18" y="57.65">consume</tspan><tspan class="cls-63" x="382.65" y="57.65"> </tspan><tspan x="386.04" y="57.65">a</tspan><tspan class="cls-63" x="391.03" y="57.65"> </tspan><tspan x="394.43" y="57.65">restful</tspan><tspan class="cls-62" x="421.48" y="57.65"> </tspan><tspan x="424.87" y="57.65">API. </tspan><tspan x="0" y="72.07">Space Case is a web app designed to allow a user to read about, review, and rate venues.</tspan></tspan></text><text class="cls-17" transform="translate(78.78 325.08)">fall-</text><text class="cls-17" transform="translate(68.73 340.01)">2016</text><rect class="cls-45" x="100.88" y="315.45" width="11.31" height="11.31"/><line class="cls-46" x1="102.77" y1="321.11" x2="110.31" y2="321.11"/></svg>