<?xml version="1.0" encoding="utf-8"?>
<!-- Generator: Adobe Illustrator 21.0.0, SVG Export Plug-In . SVG Version: 6.00 Build 0)  -->
<svg version="1.1" id="Layer_1" xmlns="http://www.w3.org/2000/svg" xmlns:xlink="http://www.w3.org/1999/xlink" x="0px" y="0px"
	 viewBox="0 0 612 792" style="enable-background:new 0 0 612 792;" xml:space="preserve">
<style type="text/css">
	.st0{fill:#161512;}
	.st1{font-family:'MyriadPro-BoldCond';}
	.st2{font-size:48px;}
	.st3{fill:#0C6486;}
	.st4{font-family:'MyriadPro-LightSemiCn';}
	.st5{fill:#0E6486;}
	.st6{font-family:'MyriadPro-Regular';}
	.st7{font-size:12.61px;}
	.st8{fill:#231F20;}
	.st9{font-size:12px;}
	.st10{font-size:13px;}
	.st11{fill:#151310;}
	.st12{font-size:14.41px;}
	.st13{letter-spacing:-1;}
	.st14{font-size:11px;}
	.st15{fill:#FFFFFF;}
	.st16{fill:none;stroke:#0E6486;stroke-miterlimit:10;}
	.st17{fill:#FFFFFF;stroke:#FFFFFF;stroke-miterlimit:10;}
	.st18{fill:none;stroke:#231F20;stroke-miterlimit:10;}
	.st19{font-family:'MyriadPro-Light';}
	.st20{font-size:9px;}
	.st21{font-size:16px;}
</style>
<title>BackendResume</title>
<text transform="matrix(1 0 0 1 67.0783 83.42)"><tspan x="0" y="0" class="st0 st1 st2">HALLEY </tspan><tspan x="127.3" y="0" class="st3 st4 st2">FROEB</tspan></text>
<text transform="matrix(1 0 0 1 374.71 54.03)" class="st5 st6 st7">Email:</text>
<text transform="matrix(1 0 0 1 432.48 52.26)" class="st8 st4 st9">hfroeb@gmail.com</text>
<text transform="matrix(1 0 0 1 369.44 71.26)" class="st5 st6 st7">P</text>
<text transform="matrix(1 0 0 1 376.02 71.26)" class="st5 st6 st7">hone:</text>
<text transform="matrix(1 0 0 1 433.21 72.15)" class="st8 st4 st10">615 584 2664</text>
<g id="Shape_1">
	<rect x="58" y="112.5" class="st11" width="486" height="3.8"/>
</g>
<text transform="matrix(1 0 0 1 74.86 139.3101)" class="st11 st6 st12">EDU</text>
<text transform="matrix(1 0 0 1 100.66 139.3101)" class="st11 st6 st12">C</text>
<text transform="matrix(1 0 0 1 109.01 139.3101)" class="st11 st6 st12 st13">A</text>
<text transform="matrix(1 0 0 1 116.64 139.3101)" class="st11 st6 st12">TION</text>
<g id="Shape_10">
	<rect x="71.1" y="145.3" class="st11" width="286.3" height="0.8"/>
</g>
<text transform="matrix(1 0 0 1 65.38 229.34)" class="st11 st6 st9">2014 -</text>
<text transform="matrix(1 0 0 1 116.93 228.3201)" class="st11 st6 st10">TULANE UNIVERSITY</text>
<text transform="matrix(1 0 0 1 116.93 242.73)" class="st5 st6 st14">BACHELOR OF ARTS</text>
<text transform="matrix(1 0 0 1 116.93 257.15)" class="st8 st4 st9">Communication Studies</text>
<text transform="matrix(1 0 0 1 74.86 291.38)" class="st11 st6 st12">EXPERIENCE</text>
<g id="Shape_10-2">
	<rect x="71.1" y="295.4" class="st11" width="286.3" height="0.8"/>
</g>
<text transform="matrix(1 0 0 1 69.1 426.52)" class="st11 st6 st9">2013-</text>
<text transform="matrix(1 0 0 1 116.93 423.6899)" class="st11 st6 st9">MANAGER, DIGITAL AND SOCIAL MEDIA</text>
<text transform="matrix(1 0 0 1 116.93 438.1)" class="st5 st6 st9">READnola</text>
<text transform="matrix(1 0 0 1 116.93 452.52)" class="st8 st4 st9">Developed</text>
<text transform="matrix(1 0 0 1 164.55 452.52)" class="st8 st4 st9"> </text>
<text transform="matrix(1 0 0 1 167.41 452.52)" class="st8 st4 st9">website</text>
<text transform="matrix(1 0 0 1 201.7 452.52)" class="st8 st4 st9"> </text>
<text transform="matrix(1 0 0 1 204.56 452.52)" class="st8 st4 st9">layouts,</text>
<text transform="matrix(1 0 0 1 237.84 452.52)" class="st8 st4 st9"> </text>
<text transform="matrix(1 0 0 1 240.71 452.52)" class="st8 st4 st9">illustrated</text>
<text transform="matrix(1 0 0 1 283.86 452.52)" class="st8 st4 st9"> </text>
<text transform="matrix(1 0 0 1 286.72 452.52)" class="st8 st4 st9">graphics,</text>
<text transform="matrix(1 0 0 1 325.98 452.52)" class="st8 st4 st9"> </text>
<text transform="matrix(1 0 0 1 328.84 452.52)" class="st8 st4 st9">produced</text>
<text transform="matrix(1 0 0 1 371.41 452.52)" class="st8 st4 st9"> </text>
<text transform="matrix(1 0 0 1 374.28 452.52)" class="st8 st4 st9">interactive</text>
<text transform="matrix(1 0 0 1 420.05 452.52)" class="st8 st4 st9"> </text>
<text transform="matrix(1 0 0 1 422.92 452.52)" class="st8 st4 st9">videos,</text>
<text transform="matrix(1 0 0 1 453.25 452.52)" class="st8 st4 st9"> </text>
<text transform="matrix(1 0 0 1 456.11 452.52)" class="st8 st4 st9">managed</text>
<text transform="matrix(1 0 0 1 497.96 452.52)" class="st8 st4 st9"> </text>
<text transform="matrix(1 0 0 1 500.83 452.52)" class="st8 st4 st9">social </text>
<text transform="matrix(1 0 0 1 116.93 466.9301)" class="st8 st4 st9">media</text>
<text transform="matrix(1 0 0 1 144.39 466.9301)" class="st8 st4 st9"> </text>
<text transform="matrix(1 0 0 1 147.05 466.9301)" class="st8 st4 st9">accounts,</text>
<text transform="matrix(1 0 0 1 188.52 466.9301)" class="st8 st4 st9"> </text>
<text transform="matrix(1 0 0 1 191.19 466.9301)" class="st8 st4 st9">and</text>
<text transform="matrix(1 0 0 1 207.92 466.9301)" class="st8 st4 st9"> </text>
<text transform="matrix(1 0 0 1 210.58 466.9301)" class="st8 st4 st9">consulted</text>
<text transform="matrix(1 0 0 1 253.74 466.9301)" class="st8 st4 st9"> </text>
<text transform="matrix(1 0 0 1 256.4 466.9301)" class="st8 st4 st9">in</text>
<text transform="matrix(1 0 0 1 264.59 466.9301)" class="st8 st4 st9"> </text>
<text transform="matrix(1 0 0 1 267.25 466.9301)" class="st8 st4 st9">marketing</text>
<text transform="matrix(1 0 0 1 311.89 466.9301)" class="st8 st4 st9"> </text>
<text transform="matrix(1 0 0 1 314.56 466.9301)" class="st8 st4 st9">strategies</text>
<text transform="matrix(1 0 0 1 356.51 466.9301)" class="st8 st4 st9"> </text>
<text transform="matrix(1 0 0 1 359.18 466.9301)" class="st8 st4 st9">which</text>
<text transform="matrix(1 0 0 1 385.98 466.9301)" class="st8 st4 st9"> </text>
<text transform="matrix(1 0 0 1 388.65 466.9301)" class="st8 st4 st9">resulted</text>
<text transform="matrix(1 0 0 1 423.95 466.9301)" class="st8 st4 st9"> </text>
<text transform="matrix(1 0 0 1 426.62 466.9301)" class="st8 st4 st9">in</text>
<text transform="matrix(1 0 0 1 434.81 466.9301)" class="st8 st4 st9"> </text>
<text transform="matrix(1 0 0 1 437.47 466.9301)" class="st8 st4 st9">greater</text>
<text transform="matrix(1 0 0 1 468.78 466.9301)" class="st8 st4 st9"> </text>
<text transform="matrix(1 0 0 1 471.45 466.9301)" class="st8 st4 st9">online</text>
<text transform="matrix(1 0 0 1 498.85 466.9301)" class="st8 st4 st9"> </text>
<text transform="matrix(1 0 0 1 501.52 466.9301)" class="st8 st4 st9">inter</text>
<text transform="matrix(1 0 0 1 521.61 466.9301)" class="st8 st4 st9">-</text>
<text transform="matrix(1 0 0 1 116.93 481.34)" class="st8 st4 st9">action with customers.</text>
<text transform="matrix(1 0 0 1 68.22 579.51)" class="st11 st6 st9">2014</text>
<g id="Shape_12">
	<rect x="132.9" y="573.6" class="st15" width="7.9" height="11.2"/>
</g>
<text transform="matrix(1 0 0 1 118.59 578.5801)" class="st11 st6 st9">PRODUCTION ASSISTANT</text>
<text transform="matrix(1 0 0 1 118.59 592.99)" class="st5 st6 st9">FlITTERMOUSE PRODUCTIONS</text>
<text transform="matrix(1 0 0 1 118.59 607.41)" class="st8 st4 st9">Scheduled</text>
<text transform="matrix(1 0 0 1 164.8 607.41)" class="st8 st4 st9"> </text>
<text transform="matrix(1 0 0 1 167.65 607.41)" class="st8 st4 st9">daily</text>
<text transform="matrix(1 0 0 1 188.1 607.41)" class="st8 st4 st9"> </text>
<text transform="matrix(1 0 0 1 190.95 607.41)" class="st8 st4 st9">reports,</text>
<text transform="matrix(1 0 0 1 223.99 607.41)" class="st8 st4 st9"> </text>
<text transform="matrix(1 0 0 1 226.84 607.41)" class="st8 st4 st9">provided</text>
<text transform="matrix(1 0 0 1 266.12 607.41)" class="st8 st4 st9"> </text>
<text transform="matrix(1 0 0 1 268.97 607.41)" class="st8 st4 st9">service</text>
<text transform="matrix(1 0 0 1 298.9 607.41)" class="st8 st4 st9"> </text>
<text transform="matrix(1 0 0 1 301.75 607.41)" class="st8 st4 st9">for</text>
<text transform="matrix(1 0 0 1 313.64 607.41)" class="st8 st4 st9"> </text>
<text transform="matrix(1 0 0 1 316.49 607.41)" class="st8 st4 st9">various</text>
<text transform="matrix(1 0 0 1 347.62 607.41)" class="st8 st4 st9"> </text>
<text transform="matrix(1 0 0 1 350.47 607.41)" class="st8 st4 st9">aspects</text>
<text transform="matrix(1 0 0 1 383.04 607.41)" class="st8 st4 st9"> </text>
<text transform="matrix(1 0 0 1 385.89 607.41)" class="st8 st4 st9">of</text>
<text transform="matrix(1 0 0 1 394.52 607.41)" class="st8 st4 st9"> </text>
<text transform="matrix(1 0 0 1 397.37 607.41)" class="st8 st4 st9">the</text>
<text transform="matrix(1 0 0 1 411.86 607.41)" class="st8 st4 st9"> </text>
<text transform="matrix(1 0 0 1 414.71 607.41)" class="st8 st4 st9">production</text>
<text transform="matrix(1 0 0 1 463.43 607.41)" class="st8 st4 st9"> </text>
<text transform="matrix(1 0 0 1 466.28 607.41)" class="st8 st4 st9">development </text>
<text transform="matrix(1 0 0 1 118.59 621.8201)" class="st8 st4 st9">such as lighting, set design, and production management.</text>
<text transform="matrix(1 0 0 1 68.69 647.26)" class="st11 st6 st9">2012</text>
<text transform="matrix(1 0 0 1 116.93 646.51)" class="st11 st6 st9">INTERNSHIP</text>
<text transform="matrix(1 0 0 1 116.93 660.92)" class="st5 st6 st9">THE O’REILLY FACTOR, FOX NEWS</text>
<text transform="matrix(1 0 0 1 116.93 675.34)" class="st8 st4 st9">Wrote</text>
<text transform="matrix(1 0 0 1 143.76 675.34)" class="st8 st4 st9"> </text>
<text transform="matrix(1 0 0 1 147.05 675.34)" class="st8 st4 st9">competition</text>
<text transform="matrix(1 0 0 1 200.8 675.34)" class="st8 st4 st9"> </text>
<text transform="matrix(1 0 0 1 204.09 675.34)" class="st8 st4 st9">reports,</text>
<text transform="matrix(1 0 0 1 237.12 675.34)" class="st8 st4 st9"> </text>
<text transform="matrix(1 0 0 1 240.41 675.34)" class="st8 st4 st9">ran</text>
<text transform="matrix(1 0 0 1 254.51 675.34)" class="st8 st4 st9"> </text>
<text transform="matrix(1 0 0 1 257.8 675.34)" class="st8 st4 st9">the</text>
<text transform="matrix(1 0 0 1 272.29 675.34)" class="st8 st4 st9"> </text>
<text transform="matrix(1 0 0 1 275.58 675.34)" class="st8 st4 st9">green</text>
<text transform="matrix(1 0 0 1 301.09 675.34)" class="st8 st4 st9"> </text>
<text transform="matrix(1 0 0 1 304.38 675.34)" class="st8 st4 st9">room,</text>
<text transform="matrix(1 0 0 1 330.17 675.34)" class="st8 st4 st9"> </text>
<text transform="matrix(1 0 0 1 333.46 675.34)" class="st8 st4 st9">worked</text>
<text transform="matrix(1 0 0 1 366.29 675.34)" class="st8 st4 st9"> </text>
<text transform="matrix(1 0 0 1 369.58 675.34)" class="st8 st4 st9">with</text>
<text transform="matrix(1 0 0 1 389.14 675.34)" class="st8 st4 st9"> </text>
<text transform="matrix(1 0 0 1 392.43 675.34)" class="st8 st4 st9">guests</text>
<text transform="matrix(1 0 0 1 420.92 675.34)" class="st8 st4 st9"> </text>
<text transform="matrix(1 0 0 1 424.21 675.34)" class="st8 st4 st9">on</text>
<text transform="matrix(1 0 0 1 435.79 675.34)" class="st8 st4 st9"> </text>
<text transform="matrix(1 0 0 1 439.08 675.34)" class="st8 st4 st9">the</text>
<text transform="matrix(1 0 0 1 453.57 675.34)" class="st8 st4 st9"> </text>
<text transform="matrix(1 0 0 1 456.86 675.34)" class="st8 st4 st9">show,</text>
<text transform="matrix(1 0 0 1 482.6 675.34)" class="st8 st4 st9"> </text>
<text transform="matrix(1 0 0 1 485.89 675.34)" class="st8 st4 st9">provided </text>
<text transform="matrix(1 0 0 1 116.93 689.75)" class="st8 st4 st9">research summaries, edited montage sequences, and assisted with field research.</text>
<text transform="matrix(1 0 0 1 374.56 139.3201)" class="st11 st6 st12">SKILLS</text>
<g id="Shape_10-3">
	<rect x="371.6" y="145.3" class="st11" width="159.9" height="0.8"/>
</g>
<text transform="matrix(1 0 0 1 362.8 91.23)" class="st5 st6 st7">A</text>
<text transform="matrix(1 0 0 1 370.3 91.23)" class="st5 st6 st7">dd</text>
<text transform="matrix(1 0 0 1 384.4 91.23)" class="st5 st6 st7">r</text>
<text transform="matrix(1 0 0 1 388.33 91.23)" class="st5 st6 st7">ess:</text>
<text transform="matrix(1 0 0 1 432.96 91.65)" class="st8 st4 st9">4114 Skyline Dr. </text>
<text transform="matrix(1 0 0 1 432.96 102.02)" class="st8 st4 st9">Nashville, TN 37215</text>
<text transform="matrix(1 0 0 1 116.93 508.99)" class="st11 st6 st9">DIGITAL ARCHIVE CONTRIBUTOR</text>
<text transform="matrix(1 0 0 1 116.93 523.4)" class="st5 st6 st9">MEDIA NOLA</text>
<text transform="matrix(1 0 0 1 116.93 537.8199)" class="st8 st4 st9">Filmed,</text>
<text transform="matrix(1 0 0 1 148.87 537.8199)" class="st8 st4 st9"> </text>
<text transform="matrix(1 0 0 1 152.04 537.8199)" class="st8 st4 st9">edited,</text>
<text transform="matrix(1 0 0 1 182.14 537.8199)" class="st8 st4 st9"> </text>
<text transform="matrix(1 0 0 1 185.31 537.8199)" class="st8 st4 st9">and</text>
<text transform="matrix(1 0 0 1 202.04 537.8199)" class="st8 st4 st9"> </text>
<text transform="matrix(1 0 0 1 205.21 537.8199)" class="st8 st4 st9">produced</text>
<text transform="matrix(1 0 0 1 247.77 537.8199)" class="st8 st4 st9"> </text>
<text transform="matrix(1 0 0 1 250.94 537.8199)" class="st8 st4 st9">a</text>
<text transform="matrix(1 0 0 1 255.93 537.8199)" class="st8 st4 st9"> </text>
<text transform="matrix(1 0 0 1 259.1 537.8199)" class="st8 st4 st9">digital</text>
<text transform="matrix(1 0 0 1 286.33 537.8199)" class="st8 st4 st9"> </text>
<text transform="matrix(1 0 0 1 289.5 537.8199)" class="st8 st4 st9">story</text>
<text transform="matrix(1 0 0 1 310.81 537.8199)" class="st8 st4 st9"> </text>
<text transform="matrix(1 0 0 1 313.98 537.8199)" class="st8 st4 st9">of</text>
<text transform="matrix(1 0 0 1 322.61 537.8199)" class="st8 st4 st9"> </text>
<text transform="matrix(1 0 0 1 325.78 537.8199)" class="st8 st4 st9">Tulane</text>
<text transform="matrix(1 0 0 1 355.12 537.8199)" class="st8 st4 st9"> </text>
<text transform="matrix(1 0 0 1 358.29 537.8199)" class="st8 st4 st9">Alumnae.</text>
<text transform="matrix(1 0 0 1 400.02 537.8199)" class="st8 st4 st9"> </text>
<text transform="matrix(1 0 0 1 403.19 537.8199)" class="st8 st4 st9">Organized</text>
<text transform="matrix(1 0 0 1 448.26 537.8199)" class="st8 st4 st9"> </text>
<text transform="matrix(1 0 0 1 451.43 537.8199)" class="st8 st4 st9">an</text>
<text transform="matrix(1 0 0 1 462.27 537.8199)" class="st8 st4 st9"> </text>
<text transform="matrix(1 0 0 1 465.44 537.8199)" class="st8 st4 st9">alumnae</text>
<text transform="matrix(1 0 0 1 503.66 537.8199)" class="st8 st4 st9"> </text>
<text transform="matrix(1 0 0 1 506.83 537.8199)" class="st8 st4 st9">event </text>
<text transform="matrix(1 0 0 1 116.93 552.23)" class="st8 st4 st9">that exibited these stories for a historical archive.</text>
<text transform="matrix(1 0 0 1 68.22 511.1)" class="st11 st6 st9">2015</text>
<text transform="matrix(1 0 0 1 68.72 441.46)" class="st11 st6 st9">2016</text>
<text transform="matrix(1 0 0 1 64.72 245.03)" class="st11 st6 st9">2016</text>
<line class="st16" x1="107.5" y1="159.1" x2="107.5" y2="271.9"/>
<line class="st16" x1="106.5" y1="301" x2="106.5" y2="704.7"/>
<rect x="101.8" y="220.2" class="st17" width="11.3" height="11.3"/>
<line class="st18" x1="103.7" y1="224.8" x2="111.2" y2="224.8"/>
<rect x="100.9" y="416.9" class="st17" width="11.3" height="11.3"/>
<line class="st18" x1="102.8" y1="422.5" x2="110.3" y2="422.5"/>
<rect x="100.8" y="500.6" class="st17" width="11.3" height="11.3"/>
<line class="st18" x1="102.7" y1="506.2" x2="110.2" y2="506.2"/>
<rect x="100.7" y="570" class="st17" width="11.3" height="11.3"/>
<line class="st18" x1="103.5" y1="575.7" x2="111.1" y2="575.7"/>
<rect x="100.9" y="637.3" class="st17" width="11.3" height="11.3"/>
<line class="st18" x1="102.8" y1="643" x2="110.3" y2="643"/>
<text transform="matrix(1 0 0 1 364.27 102.8101)" class="st5 st19 st20">(</text>
<text transform="matrix(1 0 0 1 366.61 102.8101)" class="st5 st19 st20">P</text>
<text transform="matrix(1 0 0 1 370.85 102.8101)" class="st5 st19 st20">e</text>
<text transform="matrix(1 0 0 1 375.17 102.8101)" class="st5 st19 st20">r</text>
<text transform="matrix(1 0 0 1 377.84 102.8101)" class="st5 st19 st20">manent)</text>
<text transform="matrix(1 0 0 1 71.29 101.9301)" class="st8 st19 st9">Back End </text>
<text transform="matrix(1 0 0 1 117.03 101.9301)" class="st8 st19 st9">D</text>
<text transform="matrix(1 0 0 1 124.87 101.9301)" class="st8 st19 st9">e</text>
<text transform="matrix(1 0 0 1 130.74 101.9301)" class="st8 st19 st9">v</text>
<text transform="matrix(1 0 0 1 136.08 101.9301)" class="st8 st19 st9">eloper</text>
<rect x="101.7" y="165.9" class="st17" width="11.3" height="11.3"/>
<line class="st18" x1="103.5" y1="171.5" x2="111.1" y2="171.5"/>
<text transform="matrix(1 0 0 1 65.27 182.54)" class="st11 st6 st9"> 2016  </text>
<text transform="matrix(1 0 0 1 77.43 168.87)" class="st11 st6 st9">fall  </text>
<text transform="matrix(1 0 0 1 116.93 167.73)" class="st11 st6 st10">THE IRON YARD</text>
<text transform="matrix(1 0 0 1 116.93 182.14)" class="st5 st6 st14">BACK END ENGINEERING</text>
<text transform="matrix(1 0 0 1 116.93 196.5599)" class="st8 st4 st9">Intensive coding program</text>
<text transform="matrix(1 0 0 1 372.84 165.6799)" class="st5 st6 st21">Java</text>
<text transform="matrix(1 0 0 1 372.84 185.6799)" class="st5 st6 st21">Scala</text>
<text transform="matrix(1 0 0 1 372.84 205.6799)" class="st5 st6 st21">Mustache</text>
<text transform="matrix(1 0 0 1 372.84 225.6799)" class="st5 st6 st21">Spring</text>
<text transform="matrix(1 0 0 1 372.84 245.6799)" class="st5 st6 st21">Play</text>
<text transform="matrix(1 0 0 1 372.84 265.6799)" class="st5 st6 st21">HTML</text>
<text transform="matrix(1 0 0 1 459.77 165.75)" class="st5 st6 st21">CSS</text>
<text transform="matrix(1 0 0 1 459.77 185.75)" class="st5 st6 st21">Hibernate</text>
<text transform="matrix(1 0 0 1 459.77 205.75)" class="st5 st6 st21">Restful APIs</text>
<text transform="matrix(1 0 0 1 459.77 225.75)" class="st5 st6 st21">SQL</text>
<text transform="matrix(1 0 0 1 459.77 245.75)" class="st5 st6 st21">Unix</text>
<text transform="matrix(1 0 0 1 459.77 265.75)" class="st5 st6 st21">GitHub</text>
<text transform="matrix(1 0 0 1 116.41 322.1899)" class="st11 st6 st9">BACK END ENGINEERING</text>
<text transform="matrix(1 0 0 1 116.41 336.6)" class="st5 st6 st9">THE IRON YARD</text>
<text transform="matrix(1 0 0 1 116.41 351.02)" class="st8 st4 st9">Completed</text>
<text transform="matrix(1 0 0 1 165.35 351.02)" class="st8 st4 st9"> </text>
<text transform="matrix(1 0 0 1 168.55 351.02)" class="st8 st4 st9">a</text>
<text transform="matrix(1 0 0 1 173.54 351.02)" class="st8 st4 st9"> </text>
<text transform="matrix(1 0 0 1 176.74 351.02)" class="st8 st4 st9">3</text>
<text transform="matrix(1 0 0 1 182.12 351.02)" class="st8 st4 st9"> </text>
<text transform="matrix(1 0 0 1 185.32 351.02)" class="st8 st4 st9">month</text>
<text transform="matrix(1 0 0 1 215.11 351.02)" class="st8 st4 st9"> </text>
<text transform="matrix(1 0 0 1 218.31 351.02)" class="st8 st4 st9">immersive</text>
<text transform="matrix(1 0 0 1 263.74 351.02)" class="st8 st4 st9"> </text>
<text transform="matrix(1 0 0 1 266.94 351.02)" class="st8 st4 st9">web</text>
<text transform="matrix(1 0 0 1 286.15 351.02)" class="st8 st4 st9"> </text>
<text transform="matrix(1 0 0 1 289.35 351.02)" class="st8 st4 st9">development</text>
<text transform="matrix(1 0 0 1 348.23 351.02)" class="st8 st4 st9"> </text>
<text transform="matrix(1 0 0 1 351.43 351.02)" class="st8 st4 st9">course</text>
<text transform="matrix(1 0 0 1 380.34 351.02)" class="st8 st4 st9"> </text>
<text transform="matrix(1 0 0 1 383.54 351.02)" class="st8 st4 st9">with</text>
<text transform="matrix(1 0 0 1 403.1 351.02)" class="st8 st4 st9"> </text>
<text transform="matrix(1 0 0 1 406.3 351.02)" class="st8 st4 st9">a</text>
<text transform="matrix(1 0 0 1 411.29 351.02)" class="st8 st4 st9"> </text>
<text transform="matrix(1 0 0 1 414.49 351.02)" class="st8 st4 st9">focus</text>
<text transform="matrix(1 0 0 1 437.77 351.02)" class="st8 st4 st9"> </text>
<text transform="matrix(1 0 0 1 440.97 351.02)" class="st8 st4 st9">on</text>
<text transform="matrix(1 0 0 1 452.55 351.02)" class="st8 st4 st9"> </text>
<text transform="matrix(1 0 0 1 455.75 351.02)" class="st8 st4 st9">Back</text>
<text transform="matrix(1 0 0 1 475.81 351.02)" class="st8 st4 st9"> </text>
<text transform="matrix(1 0 0 1 479.01 351.02)" class="st8 st4 st9">End</text>
<text transform="matrix(1 0 0 1 495.84 351.02)" class="st8 st4 st9"> </text>
<text transform="matrix(1 0 0 1 499.04 351.02)" class="st8 st4 st9">Engineering </text>
<text transform="matrix(1 0 0 1 116.41 365.4301)" class="st8 st4 st9">using</text>
<text transform="matrix(1 0 0 1 140.35 365.4301)" class="st8 st4 st9"> </text>
<text transform="matrix(1 0 0 1 142.38 365.4301)" class="st8 st4 st9">Java.</text>
<text transform="matrix(1 0 0 1 163.15 365.4301)" class="st8 st4 st9"> </text>
<text transform="matrix(1 0 0 1 165.18 365.4301)" class="st8 st4 st9">Built</text>
<text transform="matrix(1 0 0 1 184.64 365.4301)" class="st8 st4 st9"> </text>
<text transform="matrix(1 0 0 1 186.67 365.4301)" class="st8 st4 st9">a</text>
<text transform="matrix(1 0 0 1 191.66 365.4301)" class="st8 st4 st9"> </text>
<text transform="matrix(1 0 0 1 193.69 365.4301)" class="st8 st4 st9">variety</text>
<text transform="matrix(1 0 0 1 222.69 365.4301)" class="st8 st4 st9"> </text>
<text transform="matrix(1 0 0 1 224.72 365.4301)" class="st8 st4 st9">of</text>
<text transform="matrix(1 0 0 1 233.35 365.4301)" class="st8 st4 st9"> </text>
<text transform="matrix(1 0 0 1 235.38 365.4301)" class="st8 st4 st9">web</text>
<text transform="matrix(1 0 0 1 254.59 365.4301)" class="st8 st4 st9"> </text>
<text transform="matrix(1 0 0 1 256.62 365.4301)" class="st8 st4 st9">application</text>
<text transform="matrix(1 0 0 1 305.35 365.4301)" class="st8 st4 st9"> </text>
<text transform="matrix(1 0 0 1 307.38 365.4301)" class="st8 st4 st9">projects</text>
<text transform="matrix(1 0 0 1 342.26 365.4301)" class="st8 st4 st9"> </text>
<text transform="matrix(1 0 0 1 344.29 365.4301)" class="st8 st4 st9">both</text>
<text transform="matrix(1 0 0 1 365.22 365.4301)" class="st8 st4 st9"> </text>
<text transform="matrix(1 0 0 1 367.25 365.4301)" class="st8 st4 st9">individually</text>
<text transform="matrix(1 0 0 1 417.2 365.4301)" class="st8 st4 st9"> </text>
<text transform="matrix(1 0 0 1 419.23 365.4301)" class="st8 st4 st9">and</text>
<text transform="matrix(1 0 0 1 435.96 365.4301)" class="st8 st4 st9"> </text>
<text transform="matrix(1 0 0 1 437.99 365.4301)" class="st8 st4 st9">collaboratively,</text>
<text transform="matrix(1 0 0 1 503.44 365.4301)" class="st8 st4 st9"> </text>
<text transform="matrix(1 0 0 1 505.47 365.4301)" class="st8 st4 st9">from</text>
<text transform="matrix(1 0 0 1 526.34 365.4301)" class="st8 st4 st9"> </text>
<text transform="matrix(1 0 0 1 528.37 365.4301)" class="st8 st4 st9">design </text>
<text transform="matrix(1 0 0 1 116.41 379.84)" class="st8 st4 st9">to</text>
<text transform="matrix(1 0 0 1 125.53 379.84)" class="st8 st4 st9"> </text>
<text transform="matrix(1 0 0 1 128.93 379.84)" class="st8 st4 st9">deployment.</text>
<text transform="matrix(1 0 0 1 184.53 379.84)" class="st8 st4 st9"> </text>
<text transform="matrix(1 0 0 1 187.93 379.84)" class="st8 st4 st9">Developed</text>
<text transform="matrix(1 0 0 1 235.54 379.84)" class="st8 st4 st9"> </text>
<text transform="matrix(1 0 0 1 238.94 379.84)" class="st8 st4 st9">a</text>
<text transform="matrix(1 0 0 1 243.93 379.84)" class="st8 st4 st9"> </text>
<text transform="matrix(1 0 0 1 247.32 379.84)" class="st8 st4 st9">capstone</text>
<text transform="matrix(1 0 0 1 287.38 379.84)" class="st8 st4 st9"> </text>
<text transform="matrix(1 0 0 1 290.77 379.84)" class="st8 st4 st9">project</text>
<text transform="matrix(1 0 0 1 320.87 379.84)" class="st8 st4 st9"> </text>
<text transform="matrix(1 0 0 1 324.27 379.84)" class="st8 st4 st9">using</text>
<text transform="matrix(1 0 0 1 348.2 379.84)" class="st8 st4 st9"> </text>
<text transform="matrix(1 0 0 1 351.6 379.84)" class="st8 st4 st9">Java</text>
<text transform="matrix(1 0 0 1 370.3 379.84)" class="st8 st4 st9"> </text>
<text transform="matrix(1 0 0 1 373.69 379.84)" class="st8 st4 st9">and</text>
<text transform="matrix(1 0 0 1 390.42 379.84)" class="st8 st4 st9"> </text>
<text transform="matrix(1 0 0 1 393.82 379.84)" class="st8 st4 st9">SpringBoot</text>
<text transform="matrix(1 0 0 1 442.68 379.84)" class="st8 st4 st9"> </text>
<text transform="matrix(1 0 0 1 446.08 379.84)" class="st8 st4 st9">to</text>
<text transform="matrix(1 0 0 1 455.2 379.84)" class="st8 st4 st9"> </text>
<text transform="matrix(1 0 0 1 458.59 379.84)" class="st8 st4 st9">consume</text>
<text transform="matrix(1 0 0 1 499.06 379.84)" class="st8 st4 st9"> </text>
<text transform="matrix(1 0 0 1 502.45 379.84)" class="st8 st4 st9">a</text>
<text transform="matrix(1 0 0 1 507.44 379.84)" class="st8 st4 st9"> </text>
<text transform="matrix(1 0 0 1 510.84 379.84)" class="st8 st4 st9">restful</text>
<text transform="matrix(1 0 0 1 537.89 379.84)" class="st8 st4 st9"> </text>
<text transform="matrix(1 0 0 1 541.28 379.84)" class="st8 st4 st9">API. </text>
<text transform="matrix(1 0 0 1 116.41 394.26)" class="st8 st4 st9">Space Case is a web app designed to allow a user to read about, review, and rate venues.</text>
<text transform="matrix(1 0 0 1 78.78 325.08)" class="st11 st6 st9">fall-</text>
<text transform="matrix(1 0 0 1 68.73 340.01)" class="st11 st6 st9">2016</text>
<rect x="100.9" y="315.5" class="st17" width="11.3" height="11.3"/>
<line class="st18" x1="102.8" y1="321.1" x2="110.3" y2="321.1"/>
</svg>
